Coordinates
version=1
nRows=15
nColumns=27
inDegrees=yes

Units are S.I. units (second, meters, Newtons, ...)
If the header above contains a line with 'inDegrees', this indicates whether rotational values are in degrees (yes) or radians (no).

endheader
time	pelvis_rotation	pelvis_tilt	pelvis_list	pelvis_tx	pelvis_ty	pelvis_tz	hip_flexion_r	hip_adduction_r	hip_rotation_r	knee_angle_r	knee_rotation_r	knee_adduction_r	knee_angle_r_beta	ankle_angle_r	subtalar_angle_r	mtp_angle_r	hip_flexion_l	hip_adduction_l	hip_rotation_l	knee_angle_l	knee_rotation_l	knee_adduction_l	knee_angle_l_beta	ankle_angle_l	subtalar_angle_l	mtp_angle_l
     11.95500000	     10.30780612	    -44.84271425	      9.16422551	     -0.16068346	      0.77456213	     -1.19169635	     98.74101072	    -16.49701814	    -15.03017556	     66.24586230	     -7.44580044	      9.25439085	      1.15620841	     11.46668994	     -2.35820641	      0.00000000	     95.72366302	     -5.38598635	    -18.03135869	     59.80679165	     -5.61647100	     -9.50051956	      1.04382543	      7.43267808	      5.31093299	      0.00000000
     11.96000000	     10.33270509	    -44.85501002	      9.22660882	     -0.16094338	      0.77390381	     -1.19189099	     98.89406635	    -16.51825178	    -14.98249626	     66.38559404	     -7.50811685	      9.25486006	      1.15864719	     11.49740681	     -2.35656557	      0.00000000	     95.84464702	     -5.37827663	    -18.11581778	     59.94335522	     -5.67084810	     -9.50330167	      1.04620891	      7.46471589	      5.30353316	      0.00000000
     11.96500000	     10.31649775	    -44.89339944	      9.10569178	     -0.16121661	      0.77323435	     -1.19202748	     98.99671815	    -16.51698993	    -15.13680793	     66.49514875	     -7.60088863	      9.25781064	      1.16055928	     11.53730842	     -2.34276211	      0.00000000	     96.03520886	     -5.39456082	    -17.99564308	     60.12547237	     -5.68948095	     -9.50558182	      1.04938746	      7.50841699	      5.29371572	      0.00000000
     11.97000000	     10.30887994	    -44.90722568	      9.28816611	     -0.16150484	      0.77247587	     -1.19224690	     99.22913312	    -16.49602511	    -14.88793574	     66.67756155	     -7.62250867	      9.25625370	      1.16374299	     11.56262817	     -2.36840782	      0.00000000	     96.13349972	     -5.41761145	    -18.25338457	     60.26368276	     -5.78141475	     -9.50902430	      1.05179968	      7.57396779	      5.32911580	      0.00000000
     11.97500000	     10.30513999	    -44.97033991	      9.22687921	     -0.16175988	      0.77179559	     -1.19242179	     99.38472880	    -16.49921671	    -14.98046718	     66.79740932	     -7.70976291	      9.25888729	      1.16583472	     11.58497756	     -2.35529651	      0.00000000	     96.33892200	     -5.40985900	    -18.19425502	     60.43133719	     -5.83325109	     -9.50512363	      1.05472581	      7.64541951	      5.30195849	      0.00000000
     11.98000000	     10.28229360	    -45.28293312	      9.01714548	     -0.16287166	      0.77001270	     -1.19234838	     99.90358921	    -16.48271524	    -14.46018876	     67.15880747	     -7.13877652	      8.74119623	      1.17214231	     11.69803853	     -2.27625142	      0.00000000	     97.03239489	     -5.52605301	    -17.36178206	     60.91302367	     -5.35280127	     -9.11414156	      1.06313282	      7.66175790	      5.22197471	      0.00000000
     11.98500000	     10.30161037	    -44.94089426	      9.28187220	     -0.16218353	      0.77035943	     -1.19283332	     99.62153984	    -16.54243792	    -14.92957910	     67.09639360	     -7.81320984	      9.26521632	      1.17105298	     11.67409029	     -2.33906709	      0.00000000	     96.54470481	     -5.37820998	    -18.29155613	     60.73751133	     -5.96011069	     -9.51693018	      1.06006955	      7.72154470	      5.21598233	      0.00000000
     11.99000000	     10.18947175	    -44.97527501	      9.27294118	     -0.16239478	      0.76958077	     -1.19293308	     99.79693872	    -16.43765039	    -14.86821541	     67.24135362	     -7.88640791	      9.26197567	      1.17358301	     11.69806819	     -2.34291884	      0.00000000	     96.69419926	     -5.47403189	    -18.39498375	     60.92779184	     -6.05012803	     -9.51473994	      1.06339057	      7.81052319	      5.25541172	      0.00000000
     11.99500000	     10.10121320	    -45.31797633	      9.36825693	     -0.16348957	      0.76777951	     -1.19291247	    100.49955999	    -16.29756864	    -13.90073537	     67.64920883	     -7.25632699	      8.73349652	      1.18070143	     11.73685137	     -2.34545501	      0.00000000	     97.32657010	     -5.66854253	    -17.98902295	     61.36568601	     -5.64244039	     -9.12968312	      1.07103327	      7.88296926	      5.20277660	      0.00000000
     12.00000000	     10.16741945	    -44.92704952	      9.22177478	     -0.16271675	      0.76814025	     -1.19335812	     99.95964702	    -16.49748464	    -14.94156853	     67.52224866	     -7.99409809	      9.27986385	      1.17848556	     11.78510445	     -2.32248037	      0.00000000	     96.90642988	     -5.41025539	    -18.36233916	     61.25376780	     -6.18276760	     -9.52286708	      1.06907993	      7.89257214	      5.07230711	      0.00000000
     12.00500000	     10.08564601	    -44.97243138	      9.16127075	     -0.16289854	      0.76734235	     -1.19348111	    100.11710444	    -16.44130063	    -14.94903729	     67.67061251	     -8.03970265	      9.28571298	      1.18107500	     11.82169107	     -2.34645754	      0.00000000	     97.09405194	     -5.45857716	    -18.34536275	     61.45809445	     -6.24454806	     -9.52346732	      1.07264610	      7.95771627	      5.00682626	      0.00000000
     12.01000000	     10.07456659	    -44.94186710	      9.17467260	     -0.16301735	      0.76657808	     -1.19371409	    100.21651567	    -16.46882241	    -14.93474392	     67.83210021	     -8.09735355	      9.28649972	      1.18389349	     11.89611419	     -2.28733387	      0.00000000	     97.19024795	     -5.42412049	    -18.38158128	     61.62720317	     -6.33218530	     -9.52928376	      1.07559760	      8.00144474	      4.92768837	      0.00000000
     12.01500000	      9.86893545	    -45.04347721	      9.18439202	     -0.16322224	      0.76577623	     -1.19377010	    100.49284056	    -16.24518056	    -14.76795541	     67.97624999	     -8.15932352	      9.28239222	      1.18640938	     11.78213391	     -2.48020505	      0.00000000	     97.39314063	     -5.62001307	    -18.57848701	     61.83806903	     -6.43329638	     -9.53188958	      1.07927791	      8.08247415	      4.99774977	      0.00000000
     12.02000000	      9.92650563	    -44.91763150	      9.09440168	     -0.16324709	      0.76500945	     -1.19402677	    100.42754445	    -16.39034400	    -14.92918450	     68.13830790	     -8.20541593	      9.30172150	      1.18923782	     11.93992779	     -2.35172884	      0.00000000	     97.42282950	     -5.48285798	    -18.37924002	     62.01259253	     -6.45131540	     -9.52943242	      1.08232392	      8.13818559	      4.77264901	      0.00000000
     12.02500000	      9.87257803	    -45.00736000	      9.13044196	     -0.16343237	      0.76420448	     -1.19414674	    100.67423057	    -16.32441997	    -14.81998008	     68.30247734	     -8.23472687	      9.29899028	      1.19210312	     11.95941999	     -2.39264368	      0.00000000	     97.64503044	     -5.52327901	    -18.44858386	     62.20761622	     -6.53043902	     -9.53601599	      1.08572772	      8.20706428	      4.71569809	      0.00000000
